<mxfile host="app.diagrams.net" modified="2023-09-07T07:03:49.956Z" agent="Mozilla/5.0 (Macintosh; Intel Mac OS X 10_15_7) AppleWebKit/537.36 (KHTML, like Gecko) Chrome/116.0.0.0 Safari/537.36" etag="ihJ1xHy6HF7LVbISufEA" version="21.7.2" type="github">
  <diagram name="第 1 页" id="jQRooHSyb7MJXE1rSH56">
    <mxGraphModel dx="1242" dy="1958" grid="1" gridSize="10" guides="1" tooltips="1" connect="1" arrows="1" fold="1" page="1" pageScale="1" pageWidth="827" pageHeight="1169" math="0" shadow="0">
      <root>
        <mxCell id="0" />
        <mxCell id="1" parent="0" />
        <mxCell id="0HZVEg5jKtWZ16a2GRVj-3" style="edgeStyle=orthogonalEdgeStyle;rounded=0;orthogonalLoop=1;jettySize=auto;html=1;entryX=0;entryY=0.5;entryDx=0;entryDy=0;" edge="1" parent="1" source="0HZVEg5jKtWZ16a2GRVj-1" target="0HZVEg5jKtWZ16a2GRVj-2">
          <mxGeometry relative="1" as="geometry" />
        </mxCell>
        <mxCell id="0HZVEg5jKtWZ16a2GRVj-1" value="Actor" style="shape=umlActor;verticalLabelPosition=bottom;verticalAlign=top;html=1;outlineConnect=0;" vertex="1" parent="1">
          <mxGeometry x="310" y="310" width="30" height="60" as="geometry" />
        </mxCell>
        <mxCell id="0HZVEg5jKtWZ16a2GRVj-13" style="rounded=0;orthogonalLoop=1;jettySize=auto;html=1;entryX=0;entryY=0.5;entryDx=0;entryDy=0;endArrow=diamondThin;endFill=0;" edge="1" parent="1" source="0HZVEg5jKtWZ16a2GRVj-2" target="0HZVEg5jKtWZ16a2GRVj-4">
          <mxGeometry relative="1" as="geometry" />
        </mxCell>
        <mxCell id="0HZVEg5jKtWZ16a2GRVj-14" style="rounded=0;orthogonalLoop=1;jettySize=auto;html=1;entryX=0;entryY=0.5;entryDx=0;entryDy=0;endArrow=diamondThin;endFill=0;" edge="1" parent="1" source="0HZVEg5jKtWZ16a2GRVj-2" target="0HZVEg5jKtWZ16a2GRVj-5">
          <mxGeometry relative="1" as="geometry" />
        </mxCell>
        <mxCell id="0HZVEg5jKtWZ16a2GRVj-15" style="rounded=0;orthogonalLoop=1;jettySize=auto;html=1;entryX=0;entryY=0.5;entryDx=0;entryDy=0;endArrow=diamondThin;endFill=0;" edge="1" parent="1" source="0HZVEg5jKtWZ16a2GRVj-2" target="0HZVEg5jKtWZ16a2GRVj-6">
          <mxGeometry relative="1" as="geometry" />
        </mxCell>
        <mxCell id="0HZVEg5jKtWZ16a2GRVj-16" style="rounded=0;orthogonalLoop=1;jettySize=auto;html=1;entryX=0;entryY=0.5;entryDx=0;entryDy=0;endArrow=diamondThin;endFill=0;" edge="1" parent="1" source="0HZVEg5jKtWZ16a2GRVj-2" target="0HZVEg5jKtWZ16a2GRVj-7">
          <mxGeometry relative="1" as="geometry" />
        </mxCell>
        <mxCell id="0HZVEg5jKtWZ16a2GRVj-17" style="rounded=0;orthogonalLoop=1;jettySize=auto;html=1;entryX=0;entryY=0.5;entryDx=0;entryDy=0;endArrow=diamondThin;endFill=0;" edge="1" parent="1" source="0HZVEg5jKtWZ16a2GRVj-2" target="0HZVEg5jKtWZ16a2GRVj-9">
          <mxGeometry relative="1" as="geometry" />
        </mxCell>
        <mxCell id="0HZVEg5jKtWZ16a2GRVj-18" style="rounded=0;orthogonalLoop=1;jettySize=auto;html=1;entryX=0;entryY=0.5;entryDx=0;entryDy=0;endArrow=diamondThin;endFill=0;" edge="1" parent="1" source="0HZVEg5jKtWZ16a2GRVj-2" target="0HZVEg5jKtWZ16a2GRVj-11">
          <mxGeometry relative="1" as="geometry" />
        </mxCell>
        <mxCell id="0HZVEg5jKtWZ16a2GRVj-19" style="rounded=0;orthogonalLoop=1;jettySize=auto;html=1;entryX=0;entryY=0.5;entryDx=0;entryDy=0;endArrow=diamondThin;endFill=0;" edge="1" parent="1" source="0HZVEg5jKtWZ16a2GRVj-2" target="0HZVEg5jKtWZ16a2GRVj-10">
          <mxGeometry relative="1" as="geometry" />
        </mxCell>
        <mxCell id="0HZVEg5jKtWZ16a2GRVj-20" style="rounded=0;orthogonalLoop=1;jettySize=auto;html=1;entryX=0;entryY=0.5;entryDx=0;entryDy=0;endArrow=diamondThin;endFill=0;" edge="1" parent="1" source="0HZVEg5jKtWZ16a2GRVj-2" target="0HZVEg5jKtWZ16a2GRVj-12">
          <mxGeometry relative="1" as="geometry" />
        </mxCell>
        <mxCell id="0HZVEg5jKtWZ16a2GRVj-2" value="submit review" style="ellipse;whiteSpace=wrap;html=1;" vertex="1" parent="1">
          <mxGeometry x="470" y="300" width="120" height="80" as="geometry" />
        </mxCell>
        <mxCell id="0HZVEg5jKtWZ16a2GRVj-4" value="edit email" style="ellipse;whiteSpace=wrap;html=1;" vertex="1" parent="1">
          <mxGeometry x="730" y="-40" width="120" height="80" as="geometry" />
        </mxCell>
        <mxCell id="0HZVEg5jKtWZ16a2GRVj-5" value="edit Business address" style="ellipse;whiteSpace=wrap;html=1;" vertex="1" parent="1">
          <mxGeometry x="737" y="70" width="120" height="80" as="geometry" />
        </mxCell>
        <mxCell id="0HZVEg5jKtWZ16a2GRVj-6" value="edit Compoany Financail" style="ellipse;whiteSpace=wrap;html=1;" vertex="1" parent="1">
          <mxGeometry x="737" y="190" width="120" height="80" as="geometry" />
        </mxCell>
        <mxCell id="0HZVEg5jKtWZ16a2GRVj-7" value="edit Active Detail" style="ellipse;whiteSpace=wrap;html=1;" vertex="1" parent="1">
          <mxGeometry x="737" y="295" width="120" height="80" as="geometry" />
        </mxCell>
        <mxCell id="0HZVEg5jKtWZ16a2GRVj-9" value="edit Person Tax" style="ellipse;whiteSpace=wrap;html=1;" vertex="1" parent="1">
          <mxGeometry x="737" y="400" width="120" height="80" as="geometry" />
        </mxCell>
        <mxCell id="0HZVEg5jKtWZ16a2GRVj-10" value="edit Account Details" style="ellipse;whiteSpace=wrap;html=1;" vertex="1" parent="1">
          <mxGeometry x="737" y="610" width="120" height="80" as="geometry" />
        </mxCell>
        <mxCell id="0HZVEg5jKtWZ16a2GRVj-11" value="edit Business Tax" style="ellipse;whiteSpace=wrap;html=1;" vertex="1" parent="1">
          <mxGeometry x="737" y="510" width="120" height="80" as="geometry" />
        </mxCell>
        <mxCell id="0HZVEg5jKtWZ16a2GRVj-12" value="edit Account Operation" style="ellipse;whiteSpace=wrap;html=1;" vertex="1" parent="1">
          <mxGeometry x="737" y="720" width="120" height="80" as="geometry" />
        </mxCell>
      </root>
    </mxGraphModel>
  </diagram>
</mxfile>
